<svg xmlns="http://www.w3.org/2000/svg" width="37" height="57" viewBox="0 0 37 57"><g transform="translate(-445.101 -313.894)"><path d="M7.522,38A7.53,7.53,0,0,1,0,30.478,15.838,15.838,0,0,1,8.854,16.26a7.639,7.639,0,0,0,14.975-.151A15.84,15.84,0,0,1,33,30.478,7.53,7.53,0,0,1,25.478,38ZM9.031,7.67a7.642,7.642,0,1,1,7.642,7.67A7.656,7.656,0,0,1,9.031,7.67Z" transform="translate(449.101 313.894)" fill="#3a3a3a"/><path d="M7.522,38A7.53,7.53,0,0,1,0,30.478,15.838,15.838,0,0,1,8.854,16.26a7.639,7.639,0,0,0,14.975-.151A15.84,15.84,0,0,1,33,30.478,7.53,7.53,0,0,1,25.478,38ZM9.031,7.67a7.642,7.642,0,1,1,7.642,7.67A7.656,7.656,0,0,1,9.031,7.67Z" transform="translate(445.101 317.894)" fill="#5d5d5d"/><text transform="translate(464.101 368.894)" fill="#fff" font-size="8" font-family="SegoeUI-Bold, Segoe UI" font-weight="700"><tspan x="-17.953" y="0">Followers</tspan></text></g></svg>