<svg xmlns="http://www.w3.org/2000/svg" width="19.054" height="15.15" viewBox="0 0 19.054 15.15"><path d="M20.144,6.688h0A1.613,1.613,0,0,0,18.617,5h-16A1.613,1.613,0,0,0,1.09,6.686h0A1.613,1.613,0,0,0,2.617,8.372h16A1.612,1.612,0,0,0,20.144,6.688Zm-1.278,0h0a.264.264,0,0,1-.249.275h-16a.264.264,0,0,1-.249-.275h0a.264.264,0,0,1,.249-.277h16a.264.264,0,0,1,.249.275Z" transform="translate(-1.09 -5)" fill="#fff" fill-rule="evenodd"/><path d="M20.144,15.034h0a1.613,1.613,0,0,0-1.527-1.686h-16A1.613,1.613,0,0,0,1.09,15.034h0A1.613,1.613,0,0,0,2.617,16.72h16A1.613,1.613,0,0,0,20.144,15.034Zm-1.278,0h0a.264.264,0,0,1-.249.275h-16a.264.264,0,0,1-.249-.275h0a.264.264,0,0,1,.249-.275h16a.264.264,0,0,1,.249.274Z" transform="translate(-1.09 -7.459)" fill="#fff" fill-rule="evenodd"/><path d="M20.144,23.38h0a1.613,1.613,0,0,0-1.527-1.686h-16A1.613,1.613,0,0,0,1.09,23.38h0a1.613,1.613,0,0,0,1.527,1.686h16A1.613,1.613,0,0,0,20.144,23.38Zm-1.278,0h0a.264.264,0,0,1-.249.275h-16a.264.264,0,0,1-.249-.275h0a.264.264,0,0,1,.249-.275h16a.264.264,0,0,1,.249.274Z" transform="translate(-1.09 -9.916)" fill="#fff" fill-rule="evenodd"/></svg>