<svg xmlns="http://www.w3.org/2000/svg" width="46" height="50" viewBox="0 0 46 50"><g transform="translate(-5 -287.837)"><g transform="translate(-437.447 -207.293)"><path d="M4.039,31A4.039,4.039,0,0,1,0,26.96V19.879A14.505,14.505,0,0,1,11.461,5.7a3.207,3.207,0,0,1-.93-2.231A3.744,3.744,0,0,1,14.5,0a3.744,3.744,0,0,1,3.969,3.468,3.207,3.207,0,0,1-.93,2.231A14.505,14.505,0,0,1,29,19.879V26.96A4.039,4.039,0,0,1,24.961,31Z" transform="translate(451.447 495.13)" fill="#5d5d5d"/><ellipse cx="7.5" cy="6.5" rx="7.5" ry="6.5" transform="translate(458.447 517.13)" fill="#3a3a3a"/></g><text transform="translate(28 335.837)" fill="#fff" font-size="8" font-family="SegoeUI-Bold, Segoe UI" font-weight="700"><tspan x="-22.6" y="0">Notification</tspan></text></g></svg>