<svg xmlns="http://www.w3.org/2000/svg" width="31" height="51" viewBox="0 0 31 51"><g transform="translate(-10 -297.837)"><path d="M-3776.072,709.837a6.935,6.935,0,0,1-6.928-6.928,14.53,14.53,0,0,1,2.31-7.88,14.617,14.617,0,0,1,5.994-5.287,7.171,7.171,0,0,0,7.033,5.646,7.143,7.143,0,0,0,7.062-5.785,14.608,14.608,0,0,1,6.2,5.288,14.518,14.518,0,0,1,2.4,8.018,6.935,6.935,0,0,1-6.928,6.928Zm1.556-27.935a7.123,7.123,0,0,1,7.179-7.065,7.123,7.123,0,0,1,7.179,7.065,7.122,7.122,0,0,1-7.179,7.064A7.123,7.123,0,0,1-3774.516,681.9Z" transform="translate(3793 -377)" fill="#5d5d5d"/><text transform="translate(26 346.837)" fill="#fff" font-size="8" font-family="SegoeUI-Bold, Segoe UI" font-weight="700"><tspan x="-12.389" y="0">Profile</tspan></text></g></svg>