<svg xmlns="http://www.w3.org/2000/svg" width="13.293" height="13.297" viewBox="0 0 13.293 13.297">
  <g id="Group_17" data-name="Group 17" transform="translate(-100.629 -783.321)">
    <path id="Path_22" data-name="Path 22" d="M113.922,790.184c0,4.566-2.082,6.434-6.646,6.434s-6.647-1.868-6.647-6.434,2.082-6.863,6.647-6.863,6.646,2.3,6.646,6.863" fill="#fff"/>
    <g id="Group_16" data-name="Group 16">
      <path id="Path_23" data-name="Path 23" d="M110.21,787.037a4.149,4.149,0,0,0-6.529,5l-.589,2.15,2.2-.577a4.145,4.145,0,0,0,1.982.505h0a4.149,4.149,0,0,0,2.934-7.082m-2.934,6.381h0a3.442,3.442,0,0,1-1.755-.48l-.126-.075-1.305.342.349-1.272-.082-.13a3.448,3.448,0,1,1,2.921,1.615" fill="#f25757" fill-rule="evenodd"/>
      <path id="Path_24" data-name="Path 24" d="M109.167,790.891c-.1-.052-.613-.3-.708-.337s-.164-.052-.233.052-.268.337-.329.406-.121.078-.225.026a2.841,2.841,0,0,1-.833-.514,3.105,3.105,0,0,1-.576-.718c-.061-.1-.007-.16.045-.212s.1-.121.155-.181a.7.7,0,0,0,.1-.173.19.19,0,0,0-.009-.182c-.025-.052-.233-.562-.319-.769s-.17-.175-.233-.178-.13,0-.2,0a.382.382,0,0,0-.277.13,1.164,1.164,0,0,0-.362.865,2.014,2.014,0,0,0,.423,1.072,4.617,4.617,0,0,0,1.771,1.564,5.671,5.671,0,0,0,.591.219,1.41,1.41,0,0,0,.652.041,1.067,1.067,0,0,0,.7-.493.867.867,0,0,0,.06-.493c-.025-.043-.094-.069-.2-.121" fill="#f25757" fill-rule="evenodd"/>
    </g>
  </g>
</svg>
