<svg xmlns="http://www.w3.org/2000/svg" width="13.294" height="13.297" viewBox="0 0 13.294 13.297">
  <g id="Group_19" data-name="Group 19" transform="translate(-46.886 -783.269)">
    <path id="Path_25" data-name="Path 25" d="M60.18,790.132c0,4.566-2.082,6.434-6.646,6.434s-6.648-1.868-6.648-6.434,2.083-6.863,6.648-6.863,6.646,2.3,6.646,6.863" fill="#fff"/>
    <g id="Group_18" data-name="Group 18">
      <path id="Path_26" data-name="Path 26" d="M53.586,786.445c1.147,0,1.283.005,1.737.025a2.376,2.376,0,0,1,.8.148,1.424,1.424,0,0,1,.815.816,2.374,2.374,0,0,1,.148.8c.021.454.026.59.026,1.738s-.005,1.284-.026,1.737a2.369,2.369,0,0,1-.148.8,1.424,1.424,0,0,1-.815.816,2.373,2.373,0,0,1-.8.148c-.454.021-.59.025-1.737.025s-1.284,0-1.737-.025a2.381,2.381,0,0,1-.8-.148,1.424,1.424,0,0,1-.815-.816,2.368,2.368,0,0,1-.148-.8c-.021-.453-.025-.589-.025-1.737s0-1.284.025-1.738a2.374,2.374,0,0,1,.148-.8,1.424,1.424,0,0,1,.815-.816,2.384,2.384,0,0,1,.8-.148c.453-.02.589-.025,1.737-.025m0-.775c-1.168,0-1.314.005-1.773.026a3.162,3.162,0,0,0-1.043.2,2.2,2.2,0,0,0-1.257,1.258,3.162,3.162,0,0,0-.2,1.043c-.021.459-.026.6-.026,1.773s.005,1.314.026,1.772a3.169,3.169,0,0,0,.2,1.044,2.2,2.2,0,0,0,1.257,1.257,3.163,3.163,0,0,0,1.043.2c.459.021.6.026,1.773.026s1.313-.005,1.772-.026a3.163,3.163,0,0,0,1.043-.2,2.194,2.194,0,0,0,1.257-1.257,3.143,3.143,0,0,0,.2-1.044c.021-.458.026-.6.026-1.772,0-1.113,0-1.259-.026-1.773a3.137,3.137,0,0,0-.2-1.043A2.192,2.192,0,0,0,56.4,785.9a3.162,3.162,0,0,0-1.043-.2c-.459-.021-.605-.026-1.772-.026" fill="#f25757"/>
      <path id="Path_27" data-name="Path 27" d="M53.586,787.762a2.207,2.207,0,1,0,2.207,2.208,2.307,2.307,0,0,0-2.207-2.208m0,3.641a1.433,1.433,0,0,1,0-2.866,1.48,1.48,0,0,1,1.432,1.487,1.387,1.387,0,0,1-1.432,1.379" fill="#f25757"/>
      <path id="Path_28" data-name="Path 28" d="M56.4,787.675a.519.519,0,1,1-1.032,0,.516.516,0,0,1,1.032,0" fill="#f25757"/>
    </g>
  </g>
</svg>
