<svg xmlns="http://www.w3.org/2000/svg" width="13.294" height="13.297" viewBox="0 0 13.294 13.297">
  <g id="Group_15" data-name="Group 15" transform="translate(-83.087 -783.307)">
    <path id="Path_20" data-name="Path 20" d="M96.381,790.17c0,4.566-2.082,6.434-6.647,6.434s-6.647-1.868-6.647-6.434,2.083-6.863,6.647-6.863,6.647,2.3,6.647,6.863" fill="#fff"/>
    <path id="Path_21" data-name="Path 21" d="M88.651,792.963a4.216,4.216,0,0,0,4.244-4.245c0-.065,0-.129,0-.193a3.018,3.018,0,0,0,.744-.772,3.022,3.022,0,0,1-.856.235,1.5,1.5,0,0,0,.656-.826,3,3,0,0,1-.947.362,1.493,1.493,0,0,0-2.581,1.021,1.471,1.471,0,0,0,.039.34,4.23,4.23,0,0,1-3.074-1.559,1.491,1.491,0,0,0,.461,1.992,1.485,1.485,0,0,1-.675-.187v.019a1.493,1.493,0,0,0,1.2,1.463,1.5,1.5,0,0,1-.393.052,1.439,1.439,0,0,1-.281-.027,1.493,1.493,0,0,0,1.394,1.036,3.01,3.01,0,0,1-2.209.618,4.218,4.218,0,0,0,2.287.671" fill="#f25757"/>
  </g>
</svg>
