<svg xmlns="http://www.w3.org/2000/svg" width="574.34" height="110.137" viewBox="0 0 574.34 110.137">
  <g id="Group_38" data-name="Group 38" transform="translate(0 -731.753)">
    <g id="Group_2" data-name="Group 2">
      <g id="Group_1" data-name="Group 1">
        <path id="Path_1" data-name="Path 1" d="M573.466,790.47l-4.814.007-19.586,19.136,5.255.014Z" fill="#4c4b4b"/>
        <path id="Path_2" data-name="Path 2" d="M560.183,790.47l-4.814.007-19.585,19.136,5.255.014Z" fill="#4c4b4b"/>
        <path id="Path_3" data-name="Path 3" d="M546.9,790.47l-4.814.007L522.5,809.613l5.255.014Z" fill="#4c4b4b"/>
        <path id="Path_4" data-name="Path 4" d="M533.618,790.47l-4.814.007-19.585,19.136,5.255.014Z" fill="#4c4b4b"/>
        <path id="Path_5" data-name="Path 5" d="M520.335,790.47l-4.814.007-19.585,19.136,5.255.014Z" fill="#4c4b4b"/>
        <path id="Path_6" data-name="Path 6" d="M507.052,790.47l-4.814.007-19.585,19.136,5.255.014Z" fill="#4c4b4b"/>
        <path id="Path_7" data-name="Path 7" d="M493.77,790.47l-4.814.007L469.37,809.613l5.255.014Z" fill="#4c4b4b"/>
        <path id="Path_8" data-name="Path 8" d="M480.487,790.47l-4.815.007-19.585,19.136,5.255.014Z" fill="#4c4b4b"/>
        <path id="Path_9" data-name="Path 9" d="M467.2,790.47l-4.814.007L442.8,809.613l5.255.014Z" fill="#4c4b4b"/>
      </g>
    </g>
    <g id="Group_4" data-name="Group 4">
      <path id="Path_16" data-name="Path 16" d="M560.183,731.753l7.079,6.849,7.079,6.849H546.026L553.1,738.6Z" fill="#f25757"/>
      <path id="Path_17" data-name="Path 17" d="M560.183,748.949l7.079,6.849,7.079,6.849H546.026L553.1,755.8Z" fill="#f25757"/>
    </g>
    <path id="Path_19" data-name="Path 19" d="M-16.8,740.127l425.6,28.517L359.343,841.89H-16.8Z" transform="translate(16.802)" fill="#f25757"/>
  </g>
</svg>
