<svg xmlns="http://www.w3.org/2000/svg" width="13.293" height="13.297" viewBox="0 0 13.293 13.297">
  <g id="Group_20" data-name="Group 20" transform="translate(-64.987 -783.307)">
    <path id="Path_29" data-name="Path 29" d="M78.28,790.17c0,4.566-2.082,6.434-6.646,6.434s-6.647-1.868-6.647-6.434,2.082-6.863,6.647-6.863,6.646,2.3,6.646,6.863" fill="#fff"/>
    <path id="Path_30" data-name="Path 30" d="M72.328,794.151l.212-3.78H73.6l.19-1.473H72.328v-.941c0-.426.118-.717.729-.717h.78v-1.317a10.383,10.383,0,0,0-1.136-.058,1.775,1.775,0,0,0-1.895,1.947V788.9H69.534v1.473h1.272v3.78Z" fill="#f25757"/>
  </g>
</svg>
